<svg xmlns="http://www.w3.org/2000/svg"  viewBox="0 0 100 100" width="500px" height="500px"><path fill="#7783ad" d="M41 18A22 22 0 1 0 41 62A22 22 0 1 0 41 18Z"/><path fill="#78cdd4" d="M41 22.499999999999996A17.5 17.474 0 1 0 41 57.44799999999999A17.5 17.474 0 1 0 41 22.499999999999996Z"/><path fill="#fefdef" d="M50 37.5A2.5 2.5 0 1 0 50 42.5 2.5 2.5 0 1 0 50 37.5zM32 37.5A2.5 2.5 0 1 0 32 42.5 2.5 2.5 0 1 0 32 37.5zM41 37.448A2.5 2.5 0 1 0 41 42.448 2.5 2.5 0 1 0 41 37.448z"/><path fill="#fcba7f" d="M82.549,81.549L82.549,81.549c-1.934,1.934-5.099,1.934-7.033,0L61.451,67.483c-1.934-1.934-1.934-5.099,0-7.032l0,0c1.934-1.934,5.099-1.934,7.033,0l14.066,14.065C84.484,76.45,84.484,79.615,82.549,81.549z"/><path fill="#1f212b" d="M41,22c-9.925,0-18,8.075-18,18s8.075,18,18,18s18-8.075,18-18S50.925,22,41,22z M41,57c-9.374,0-17-7.626-17-17s7.626-17,17-17s17,7.626,17,17S50.374,57,41,57z"/><path fill="#1f212b" d="M50 37c-1.654 0-3 1.346-3 3s1.346 3 3 3 3-1.346 3-3S51.654 37 50 37zM50 42c-1.103 0-2-.897-2-2s.897-2 2-2 2 .897 2 2S51.103 42 50 42zM32 37c-1.654 0-3 1.346-3 3s1.346 3 3 3 3-1.346 3-3S33.654 37 32 37zM32 42c-1.103 0-2-.897-2-2s.897-2 2-2 2 .897 2 2S33.103 42 32 42zM41 36.948c-1.654 0-3 1.346-3 3s1.346 3 3 3 3-1.346 3-3S42.654 36.948 41 36.948zM41 41.948c-1.103 0-2-.897-2-2s.897-2 2-2 2 .897 2 2S42.103 41.948 41 41.948zM66.854 67.146c-.195-.195-.512-.195-.707 0s-.195.512 0 .707l1 1C67.244 68.951 67.372 69 67.5 69s.256-.049.354-.146c.195-.195.195-.512 0-.707L66.854 67.146zM69.854 70.146c-.195-.195-.512-.195-.707 0s-.195.512 0 .707l8 8C77.244 78.951 77.372 79 77.5 79s.256-.049.354-.146c.195-.195.195-.512 0-.707L69.854 70.146z"/><path fill="#1f212b" d="M83.256,73.809L69.19,59.744C68.066,58.619,66.566,58,64.968,58c-1.229,0-2.397,0.369-3.383,1.048l-3.579-3.578C61.728,51.381,64,45.951,64,40c0-12.682-10.317-23-23-23S18,27.318,18,40s10.317,23,23,23c6.013,0,11.492-2.322,15.595-6.114l3.557,3.557C59.408,61.459,59,62.678,59,63.967c0,1.599,0.619,3.099,1.744,4.224L74.81,82.256C75.934,83.381,77.434,84,79.032,84c1.6,0,3.099-0.619,4.224-1.744C85.585,79.927,85.585,76.138,83.256,73.809z M41,61c-11.579,0-21-9.42-21-21s9.421-21,21-21s21,9.42,21,21S52.579,61,41,61z M81.842,80.842C81.095,81.589,80.098,82,79.032,82c-1.064,0-2.062-0.411-2.809-1.158L62.158,66.776C61.411,66.029,61,65.032,61,63.967s0.411-2.062,1.158-2.809S63.902,60,64.968,60c1.064,0,2.062,0.411,2.809,1.158l14.065,14.065C83.391,76.772,83.391,79.293,81.842,80.842z"/></svg>